<?xml version="1.0" encoding="utf-8"?>
<!-- Generator: Adobe Illustrator 17.1.0, SVG Export Plug-In . SVG Version: 6.00 Build 0)  -->
<!DOCTYPE svg PUBLIC "-//W3C//DTD SVG 1.1//EN" "http://www.w3.org/Graphics/SVG/1.1/DTD/svg11.dtd">
<svg version="1.1" xmlns="http://www.w3.org/2000/svg" xmlns:xlink="http://www.w3.org/1999/xlink" x="0px" y="0px" width="315px"
	 height="315px" viewBox="0 0 315 315" enable-background="new 0 0 315 315" xml:space="preserve">
<g id="about">
</g>
<g id="key">
	<g>
		<g>
			<path fill="#6F6F6F" d="M157.5,16.5c37.7,0,73.1,14.7,99.7,41.3c26.6,26.6,41.3,62,41.3,99.7s-14.7,73.1-41.3,99.7
				c-26.6,26.6-62,41.3-99.7,41.3s-73.1-14.7-99.7-41.3c-26.6-26.6-41.3-62-41.3-99.7s14.7-73.1,41.3-99.7
				C84.4,31.2,119.8,16.5,157.5,16.5 M157.5,1.5c-86.2,0-156,69.8-156,156s69.8,156,156,156s156-69.8,156-156S243.7,1.5,157.5,1.5
				L157.5,1.5z"/>
		</g>
	</g>
	<path fill="#F6E92E" d="M158.3,90.2c-17.3-17.3-45.5-17.3-62.8,0s-17.3,45.5,0,62.8c15.1,15.1,38.4,17.1,55.6,5.9l33.3,33.3
		l-11.6,11.6l7,7l11.5-11.7l7.2,7.2l-10.1,10.3l7.2,7.2l10.1-10.3l6.7,6.7L202,231l6.8,6.8l23.7-23.7l-68.3-68.3
		C175.4,128.6,173.5,105.3,158.3,90.2z M125.3,120.5c-5.1,5.1-13.5,5.1-18.6,0c-5.1-5.1-5.1-13.5,0-18.6c5.1-5.1,13.5-5.1,18.6,0
		C130.4,107,130.4,115.3,125.3,120.5z"/>
</g>
<g id="pop">
</g>
<g id="issues">
</g>
<g id="regions">
</g>
<g id="slices">
	<rect id="_x3C_Slice_x3E__3_" x="1.5" y="1.5" fill="none" width="312" height="312"/>
</g>
</svg>
